<mxfile host="app.diagrams.net" modified="2023-09-10T16:24:33.166Z" agent="Mozilla/5.0 (Windows NT 10.0; Win64; x64) AppleWebKit/537.36 (KHTML, like Gecko) Chrome/116.0.0.0 Safari/537.36" etag="1USrbsS-tnjclZPB_Bhh" version="21.7.4" type="device">
  <diagram id="nKU7sOdb0InS3OcaPkcW" name="第 1 页">
    <mxGraphModel dx="1562" dy="822" grid="1" gridSize="10" guides="1" tooltips="1" connect="1" arrows="1" fold="1" page="1" pageScale="1" pageWidth="1654" pageHeight="1169" background="none" math="0" shadow="0">
      <root>
        <mxCell id="0" />
        <mxCell id="1" parent="0" />
        <mxCell id="o6OS5ZYiTtiPJKNw87Dz-6" value="" style="edgeStyle=orthogonalEdgeStyle;rounded=0;orthogonalLoop=1;jettySize=auto;html=1;strokeWidth=1;startArrow=none;startFill=0;endArrow=classic;endFill=1;endSize=6;fillColor=#dae8fc;strokeColor=#6c8ebf;" parent="1" source="DH7Tb_qJhXe2Y1IwHxWB-1" target="DH7Tb_qJhXe2Y1IwHxWB-27" edge="1">
          <mxGeometry relative="1" as="geometry" />
        </mxCell>
        <mxCell id="DH7Tb_qJhXe2Y1IwHxWB-1" value="&lt;font style=&quot;font-size: 21px;&quot;&gt;骰骰子&lt;/font&gt;" style="rounded=1;whiteSpace=wrap;html=1;labelBackgroundColor=none;fillColor=#dae8fc;strokeColor=#6c8ebf;" parent="1" vertex="1">
          <mxGeometry x="705.6851456310679" y="110.00455197132615" width="188.73786407766988" height="82.43727598566308" as="geometry" />
        </mxCell>
        <mxCell id="DH7Tb_qJhXe2Y1IwHxWB-5" value="是否足夠購買土地" style="rhombus;whiteSpace=wrap;html=1;fontSize=21;labelBackgroundColor=none;fillColor=#dae8fc;strokeColor=#6c8ebf;" parent="1" vertex="1">
          <mxGeometry x="700" y="502" width="200" height="120" as="geometry" />
        </mxCell>
        <mxCell id="o6OS5ZYiTtiPJKNw87Dz-13" style="edgeStyle=orthogonalEdgeStyle;rounded=0;orthogonalLoop=1;jettySize=auto;html=1;exitX=0.5;exitY=1;exitDx=0;exitDy=0;strokeWidth=1;fontFamily=Helvetica;fontSize=12;fontColor=#000000;startArrow=none;startFill=0;endArrow=classic;endFill=1;endSize=6;fillColor=#dae8fc;strokeColor=#6c8ebf;" parent="1" source="DH7Tb_qJhXe2Y1IwHxWB-10" edge="1">
          <mxGeometry relative="1" as="geometry">
            <mxPoint x="1320" y="810" as="targetPoint" />
            <Array as="points">
              <mxPoint x="1200" y="680" />
              <mxPoint x="1320" y="680" />
            </Array>
          </mxGeometry>
        </mxCell>
        <mxCell id="DH7Tb_qJhXe2Y1IwHxWB-10" value="&lt;font style=&quot;font-size: 21px;&quot;&gt;是否足夠付過路費&lt;/font&gt;" style="rhombus;whiteSpace=wrap;html=1;labelBackgroundColor=none;fillColor=#dae8fc;strokeColor=#6c8ebf;" parent="1" vertex="1">
          <mxGeometry x="1100" y="519" width="200" height="120" as="geometry" />
        </mxCell>
        <mxCell id="DH7Tb_qJhXe2Y1IwHxWB-13" value="土地等級上升" style="rounded=1;whiteSpace=wrap;html=1;fontSize=21;labelBackgroundColor=none;fillColor=#dae8fc;strokeColor=#6c8ebf;" parent="1" vertex="1">
          <mxGeometry x="185" y="810.6329868578256" width="188.73786407766988" height="82.43727598566308" as="geometry" />
        </mxCell>
        <mxCell id="DH7Tb_qJhXe2Y1IwHxWB-16" value="玩家土地+1&lt;br&gt;改變表格" style="rounded=1;whiteSpace=wrap;html=1;fontSize=21;labelBackgroundColor=none;fillColor=#dae8fc;strokeColor=#6c8ebf;" parent="1" vertex="1">
          <mxGeometry x="606.2117475728155" y="820.0029868578256" width="188.73786407766988" height="82.43727598566308" as="geometry" />
        </mxCell>
        <mxCell id="o6OS5ZYiTtiPJKNw87Dz-7" value="" style="edgeStyle=orthogonalEdgeStyle;rounded=0;orthogonalLoop=1;jettySize=auto;html=1;strokeWidth=1;startArrow=none;startFill=0;endArrow=classic;endFill=1;endSize=6;entryX=0.5;entryY=0;entryDx=0;entryDy=0;fillColor=#dae8fc;strokeColor=#6c8ebf;" parent="1" source="DH7Tb_qJhXe2Y1IwHxWB-27" target="DH7Tb_qJhXe2Y1IwHxWB-5" edge="1">
          <mxGeometry relative="1" as="geometry">
            <mxPoint x="811" y="440" as="targetPoint" />
          </mxGeometry>
        </mxCell>
        <mxCell id="DH7Tb_qJhXe2Y1IwHxWB-27" value="&lt;font style=&quot;font-size: 21px;&quot;&gt;是否為他人土地&lt;/font&gt;" style="rhombus;whiteSpace=wrap;html=1;labelBackgroundColor=none;fillColor=#dae8fc;strokeColor=#6c8ebf;" parent="1" vertex="1">
          <mxGeometry x="695.05" y="260" width="210" height="120" as="geometry" />
        </mxCell>
        <mxCell id="DH7Tb_qJhXe2Y1IwHxWB-31" value="是" style="text;html=1;resizable=0;autosize=1;align=center;verticalAlign=middle;points=[];fillColor=#dae8fc;strokeColor=#6c8ebf;rounded=0;fontSize=21;" parent="1" vertex="1">
          <mxGeometry x="1199.9998058252427" y="462.00456391875747" width="40" height="40" as="geometry" />
        </mxCell>
        <mxCell id="DH7Tb_qJhXe2Y1IwHxWB-32" value="否，屬於自己" style="text;html=1;resizable=0;autosize=1;align=center;verticalAlign=middle;points=[];fillColor=#dae8fc;strokeColor=#6c8ebf;rounded=0;fontSize=21;" parent="1" vertex="1">
          <mxGeometry x="449.99834951456313" y="462.14456391875746" width="150" height="40" as="geometry" />
        </mxCell>
        <mxCell id="DH7Tb_qJhXe2Y1IwHxWB-33" value="否，無歸屬" style="text;html=1;resizable=0;autosize=1;align=center;verticalAlign=middle;points=[];fillColor=#dae8fc;strokeColor=#6c8ebf;rounded=0;fontSize=21;" parent="1" vertex="1">
          <mxGeometry x="827.0040776699029" y="462.14456391875746" width="130" height="40" as="geometry" />
        </mxCell>
        <mxCell id="DH7Tb_qJhXe2Y1IwHxWB-35" value="是" style="text;html=1;resizable=0;autosize=1;align=center;verticalAlign=middle;points=[];fillColor=#dae8fc;strokeColor=#6c8ebf;rounded=0;fontSize=21;" parent="1" vertex="1">
          <mxGeometry x="280.00495145631066" y="723.1959378733571" width="40" height="40" as="geometry" />
        </mxCell>
        <mxCell id="DH7Tb_qJhXe2Y1IwHxWB-36" value="是" style="text;html=1;resizable=0;autosize=1;align=center;verticalAlign=middle;points=[];fillColor=#dae8fc;strokeColor=#6c8ebf;rounded=0;fontSize=21;" parent="1" vertex="1">
          <mxGeometry x="690.0006796116504" y="723.1959378733571" width="40" height="40" as="geometry" />
        </mxCell>
        <mxCell id="DH7Tb_qJhXe2Y1IwHxWB-37" value="是" style="text;html=1;resizable=0;autosize=1;align=center;verticalAlign=middle;points=[];fillColor=#dae8fc;strokeColor=#6c8ebf;rounded=0;fontSize=21;" parent="1" vertex="1">
          <mxGeometry x="1049.9964077669902" y="723.1959378733571" width="40" height="40" as="geometry" />
        </mxCell>
        <mxCell id="DH7Tb_qJhXe2Y1IwHxWB-38" value="否" style="text;html=1;resizable=0;autosize=1;align=center;verticalAlign=middle;points=[];fillColor=#dae8fc;strokeColor=#6c8ebf;rounded=0;fontSize=21;" parent="1" vertex="1">
          <mxGeometry x="1321.1650485436892" y="723.1959378733571" width="40" height="40" as="geometry" />
        </mxCell>
        <mxCell id="DH7Tb_qJhXe2Y1IwHxWB-39" value="否" style="text;html=1;resizable=0;autosize=1;align=center;verticalAlign=middle;points=[];fillColor=#dae8fc;strokeColor=#6c8ebf;rounded=0;fontSize=21;" parent="1" vertex="1">
          <mxGeometry x="919.9993203883494" y="723.1959378733571" width="40" height="40" as="geometry" />
        </mxCell>
        <mxCell id="DH7Tb_qJhXe2Y1IwHxWB-40" value="否" style="text;html=1;resizable=0;autosize=1;align=center;verticalAlign=middle;points=[];fillColor=#dae8fc;strokeColor=#6c8ebf;rounded=0;fontSize=21;" parent="1" vertex="1">
          <mxGeometry x="559.9935922330096" y="709.9959378733571" width="40" height="40" as="geometry" />
        </mxCell>
        <mxCell id="DH7Tb_qJhXe2Y1IwHxWB-42" value="下一位玩家" style="rounded=1;whiteSpace=wrap;html=1;fontSize=21;labelBackgroundColor=none;fillColor=#dae8fc;strokeColor=#6c8ebf;" parent="1" vertex="1">
          <mxGeometry x="723.495145631068" y="1067.562724014337" width="188.73786407766988" height="82.43727598566308" as="geometry" />
        </mxCell>
        <mxCell id="DH7Tb_qJhXe2Y1IwHxWB-47" value="扣款" style="rounded=1;whiteSpace=wrap;html=1;fontSize=21;labelBackgroundColor=none;fillColor=#dae8fc;strokeColor=#6c8ebf;" parent="1" vertex="1">
          <mxGeometry x="957.0074757281553" y="810.6332138590202" width="188.73786407766988" height="82.43727598566308" as="geometry" />
        </mxCell>
        <mxCell id="o6OS5ZYiTtiPJKNw87Dz-10" value="" style="endArrow=classic;startArrow=classic;html=1;rounded=0;strokeWidth=1;endSize=6;exitX=0.5;exitY=0;exitDx=0;exitDy=0;entryX=0.5;entryY=0;entryDx=0;entryDy=0;fillColor=#dae8fc;strokeColor=#6c8ebf;" parent="1" source="o6OS5ZYiTtiPJKNw87Dz-18" target="DH7Tb_qJhXe2Y1IwHxWB-10" edge="1">
          <mxGeometry width="50" height="50" relative="1" as="geometry">
            <mxPoint x="440" y="522" as="sourcePoint" />
            <mxPoint x="1200" y="520" as="targetPoint" />
            <Array as="points">
              <mxPoint x="440" y="440" />
              <mxPoint x="490" y="440" />
              <mxPoint x="1200" y="440" />
            </Array>
          </mxGeometry>
        </mxCell>
        <mxCell id="o6OS5ZYiTtiPJKNw87Dz-11" value="" style="endArrow=classic;html=1;rounded=0;strokeWidth=1;fontFamily=Helvetica;fontSize=12;fontColor=#000000;endSize=6;fillColor=#dae8fc;strokeColor=#6c8ebf;" parent="1" edge="1">
          <mxGeometry width="50" height="50" relative="1" as="geometry">
            <mxPoint x="1218" y="680" as="sourcePoint" />
            <mxPoint x="1050.43" y="810.63" as="targetPoint" />
            <Array as="points">
              <mxPoint x="1050" y="680" />
            </Array>
          </mxGeometry>
        </mxCell>
        <mxCell id="o6OS5ZYiTtiPJKNw87Dz-15" value="遊戲結束" style="rounded=1;whiteSpace=wrap;html=1;fontSize=21;labelBackgroundColor=none;fillColor=#dae8fc;strokeColor=#6c8ebf;" parent="1" vertex="1">
          <mxGeometry x="1230" y="810.63" width="188.73786407766988" height="82.43727598566308" as="geometry" />
        </mxCell>
        <mxCell id="o6OS5ZYiTtiPJKNw87Dz-18" value="&lt;font style=&quot;font-size: 21px;&quot;&gt;是否升級&lt;/font&gt;" style="rhombus;whiteSpace=wrap;html=1;labelBackgroundColor=none;fillColor=#dae8fc;strokeColor=#6c8ebf;" parent="1" vertex="1">
          <mxGeometry x="340" y="524" width="200" height="120" as="geometry" />
        </mxCell>
        <mxCell id="o6OS5ZYiTtiPJKNw87Dz-19" style="edgeStyle=orthogonalEdgeStyle;rounded=0;orthogonalLoop=1;jettySize=auto;html=1;exitX=0.5;exitY=1;exitDx=0;exitDy=0;strokeWidth=1;fontFamily=Helvetica;fontSize=12;fontColor=#000000;startArrow=none;startFill=0;endArrow=classic;endFill=1;endSize=6;fillColor=#dae8fc;strokeColor=#6c8ebf;" parent="1" source="DH7Tb_qJhXe2Y1IwHxWB-5" edge="1">
          <mxGeometry relative="1" as="geometry">
            <mxPoint x="920" y="1000" as="targetPoint" />
            <mxPoint x="800" y="629" as="sourcePoint" />
            <Array as="points">
              <mxPoint x="800" y="670" />
              <mxPoint x="920" y="670" />
            </Array>
          </mxGeometry>
        </mxCell>
        <mxCell id="o6OS5ZYiTtiPJKNw87Dz-20" value="" style="endArrow=classic;html=1;rounded=0;strokeWidth=1;fontFamily=Helvetica;fontSize=12;fontColor=#000000;endSize=6;fillColor=#dae8fc;strokeColor=#6c8ebf;" parent="1" edge="1">
          <mxGeometry width="50" height="50" relative="1" as="geometry">
            <mxPoint x="800" y="670" as="sourcePoint" />
            <mxPoint x="690.4300000000001" y="820.0000000000001" as="targetPoint" />
            <Array as="points">
              <mxPoint x="690" y="670" />
            </Array>
          </mxGeometry>
        </mxCell>
        <mxCell id="o6OS5ZYiTtiPJKNw87Dz-21" style="edgeStyle=orthogonalEdgeStyle;rounded=0;orthogonalLoop=1;jettySize=auto;html=1;exitX=0.5;exitY=1;exitDx=0;exitDy=0;strokeWidth=1;fontFamily=Helvetica;fontSize=12;fontColor=#000000;startArrow=none;startFill=0;endArrow=classic;endFill=1;endSize=6;fillColor=#dae8fc;strokeColor=#6c8ebf;" parent="1" edge="1">
          <mxGeometry relative="1" as="geometry">
            <mxPoint x="560" y="1000" as="targetPoint" />
            <mxPoint x="440" y="644" as="sourcePoint" />
            <Array as="points">
              <mxPoint x="440" y="690" />
              <mxPoint x="560" y="690" />
            </Array>
          </mxGeometry>
        </mxCell>
        <mxCell id="o6OS5ZYiTtiPJKNw87Dz-22" value="" style="endArrow=classic;html=1;rounded=0;strokeWidth=1;fontFamily=Helvetica;fontSize=12;fontColor=#000000;endSize=6;entryX=0.5;entryY=0;entryDx=0;entryDy=0;fillColor=#dae8fc;strokeColor=#6c8ebf;" parent="1" target="DH7Tb_qJhXe2Y1IwHxWB-13" edge="1">
          <mxGeometry width="50" height="50" relative="1" as="geometry">
            <mxPoint x="438.83" y="688.2" as="sourcePoint" />
            <mxPoint x="280" y="798.2" as="targetPoint" />
            <Array as="points">
              <mxPoint x="280" y="688.2" />
            </Array>
          </mxGeometry>
        </mxCell>
        <mxCell id="o6OS5ZYiTtiPJKNw87Dz-23" value="" style="endArrow=none;html=1;rounded=0;strokeWidth=1;fontFamily=Helvetica;fontSize=12;fontColor=#000000;endSize=6;exitX=0.5;exitY=1;exitDx=0;exitDy=0;entryX=0.5;entryY=1;entryDx=0;entryDy=0;fillColor=#dae8fc;strokeColor=#6c8ebf;" parent="1" source="DH7Tb_qJhXe2Y1IwHxWB-13" target="DH7Tb_qJhXe2Y1IwHxWB-47" edge="1">
          <mxGeometry width="50" height="50" relative="1" as="geometry">
            <mxPoint x="890" y="710" as="sourcePoint" />
            <mxPoint x="940" y="660" as="targetPoint" />
            <Array as="points">
              <mxPoint x="280" y="1000" />
              <mxPoint x="1050" y="1000" />
            </Array>
          </mxGeometry>
        </mxCell>
        <mxCell id="o6OS5ZYiTtiPJKNw87Dz-24" value="" style="endArrow=classic;html=1;rounded=0;strokeWidth=1;fontFamily=Helvetica;fontSize=12;fontColor=#000000;endSize=6;exitX=0.5;exitY=1;exitDx=0;exitDy=0;fillColor=#dae8fc;strokeColor=#6c8ebf;" parent="1" source="DH7Tb_qJhXe2Y1IwHxWB-16" edge="1">
          <mxGeometry width="50" height="50" relative="1" as="geometry">
            <mxPoint x="890" y="1000" as="sourcePoint" />
            <mxPoint x="701" y="1000" as="targetPoint" />
          </mxGeometry>
        </mxCell>
        <mxCell id="o6OS5ZYiTtiPJKNw87Dz-25" value="" style="endArrow=classic;html=1;rounded=0;strokeWidth=1;fontFamily=Helvetica;fontSize=12;fontColor=#000000;endSize=6;exitX=0.5;exitY=1;exitDx=0;exitDy=0;fillColor=#dae8fc;strokeColor=#6c8ebf;" parent="1" edge="1">
          <mxGeometry width="50" height="50" relative="1" as="geometry">
            <mxPoint x="817.1506796116503" y="1000.0002628434886" as="sourcePoint" />
            <mxPoint x="818" y="1070" as="targetPoint" />
          </mxGeometry>
        </mxCell>
      </root>
    </mxGraphModel>
  </diagram>
</mxfile>
